<mxfile host="app.diagrams.net" modified="2021-03-06T15:56:40.810Z" agent="5.0 (Windows NT 10.0; Win64; x64) AppleWebKit/537.36 (KHTML, like Gecko) Chrome/88.0.4324.150 Safari/537.36 OPR/74.0.3911.160" etag="1FML15GE3BhhHjbL81ky" version="14.4.3" type="github">
  <diagram id="JGMPJzbyvDWoWRBRQCqn" name="FPS Menager">
    <mxGraphModel dx="1382" dy="774" grid="1" gridSize="10" guides="1" tooltips="1" connect="1" arrows="1" fold="1" page="1" pageScale="1" pageWidth="850" pageHeight="1100" math="0" shadow="0">
      <root>
        <mxCell id="0" />
        <mxCell id="1" parent="0" />
        <mxCell id="d4QqwgHZMLwHon4m-uyl-1" value="Team" style="swimlane;fontStyle=1;align=center;verticalAlign=top;childLayout=stackLayout;horizontal=1;startSize=26;horizontalStack=0;resizeParent=1;resizeParentMax=0;resizeLast=0;collapsible=1;marginBottom=0;fillColor=#B2C9AB;strokeColor=#788AA3;fontColor=#46495D;" parent="1" vertex="1">
          <mxGeometry x="260" y="290" width="220" height="190" as="geometry" />
        </mxCell>
        <mxCell id="d4QqwgHZMLwHon4m-uyl-2" value="+players : Player[7]&#xa;- team_unity: float&#xa;- team_map_skill: float[]&#xa;- team_expenses: int&#xa;+ strategies: Strategy[3]&#xa;" style="text;strokeColor=none;fillColor=none;align=left;verticalAlign=top;spacingLeft=4;spacingRight=4;overflow=hidden;rotatable=0;points=[[0,0.5],[1,0.5]];portConstraint=eastwest;fontColor=#46495D;" parent="d4QqwgHZMLwHon4m-uyl-1" vertex="1">
          <mxGeometry y="26" width="220" height="84" as="geometry" />
        </mxCell>
        <mxCell id="d4QqwgHZMLwHon4m-uyl-3" value="" style="line;strokeWidth=1;fillColor=none;align=left;verticalAlign=middle;spacingTop=-1;spacingLeft=3;spacingRight=3;rotatable=0;labelPosition=right;points=[];portConstraint=eastwest;strokeColor=#788AA3;fontColor=#46495D;" parent="d4QqwgHZMLwHon4m-uyl-1" vertex="1">
          <mxGeometry y="110" width="220" height="8" as="geometry" />
        </mxCell>
        <mxCell id="d4QqwgHZMLwHon4m-uyl-4" value="+ switchPlayers(Player, Player): void&#xa;+ addPlayer(Player): void&#xa;- calculateExpenses(void): int&#xa;+createStrategy(void): void" style="text;strokeColor=none;fillColor=none;align=left;verticalAlign=top;spacingLeft=4;spacingRight=4;overflow=hidden;rotatable=0;points=[[0,0.5],[1,0.5]];portConstraint=eastwest;fontColor=#46495D;" parent="d4QqwgHZMLwHon4m-uyl-1" vertex="1">
          <mxGeometry y="118" width="220" height="72" as="geometry" />
        </mxCell>
        <mxCell id="d4QqwgHZMLwHon4m-uyl-10" style="edgeStyle=orthogonalEdgeStyle;rounded=0;orthogonalLoop=1;jettySize=auto;html=1;strokeColor=#788AA3;fontColor=#46495D;entryX=0;entryY=0.5;entryDx=0;entryDy=0;" parent="1" source="d4QqwgHZMLwHon4m-uyl-5" target="d4QqwgHZMLwHon4m-uyl-2" edge="1">
          <mxGeometry relative="1" as="geometry">
            <Array as="points">
              <mxPoint x="190" y="358" />
            </Array>
            <mxPoint x="290" y="363" as="targetPoint" />
          </mxGeometry>
        </mxCell>
        <mxCell id="d4QqwgHZMLwHon4m-uyl-5" value="Player" style="swimlane;fontStyle=1;align=center;verticalAlign=top;childLayout=stackLayout;horizontal=1;startSize=26;horizontalStack=0;resizeParent=1;resizeParentMax=0;resizeLast=0;collapsible=1;marginBottom=0;fillColor=#B2C9AB;strokeColor=#788AA3;fontColor=#46495D;" parent="1" vertex="1">
          <mxGeometry x="40" y="316" width="160" height="298" as="geometry" />
        </mxCell>
        <mxCell id="d4QqwgHZMLwHon4m-uyl-6" value="- talent: float&#xa;- map_skill: float[]&#xa;- weapon_skill: float[]&#xa;- utility_usage: float[]&#xa;- game_sense: float&#xa;- communication: float&#xa;- personality: Personality  &#xa;- mood: float&#xa;- motivation: float&#xa;- age: int&#xa;- nationality: String&#xa;- name: String&#xa;- surname: String&#xa;+ player_pay: int" style="text;strokeColor=none;fillColor=none;align=left;verticalAlign=top;spacingLeft=4;spacingRight=4;overflow=hidden;rotatable=0;points=[[0,0.5],[1,0.5]];portConstraint=eastwest;fontColor=#46495D;" parent="d4QqwgHZMLwHon4m-uyl-5" vertex="1">
          <mxGeometry y="26" width="160" height="234" as="geometry" />
        </mxCell>
        <mxCell id="d4QqwgHZMLwHon4m-uyl-7" value="" style="line;strokeWidth=1;fillColor=none;align=left;verticalAlign=middle;spacingTop=-1;spacingLeft=3;spacingRight=3;rotatable=0;labelPosition=right;points=[];portConstraint=eastwest;strokeColor=#788AA3;fontColor=#46495D;" parent="d4QqwgHZMLwHon4m-uyl-5" vertex="1">
          <mxGeometry y="260" width="160" height="8" as="geometry" />
        </mxCell>
        <mxCell id="d4QqwgHZMLwHon4m-uyl-8" value="- retire(void): void" style="text;strokeColor=none;fillColor=none;align=left;verticalAlign=top;spacingLeft=4;spacingRight=4;overflow=hidden;rotatable=0;points=[[0,0.5],[1,0.5]];portConstraint=eastwest;fontColor=#46495D;" parent="d4QqwgHZMLwHon4m-uyl-5" vertex="1">
          <mxGeometry y="268" width="160" height="30" as="geometry" />
        </mxCell>
        <mxCell id="kuDPgty7mX3tu8Ov-66l-5" style="edgeStyle=orthogonalEdgeStyle;rounded=0;orthogonalLoop=1;jettySize=auto;html=1;entryX=1;entryY=0.5;entryDx=0;entryDy=0;strokeColor=#788AA3;fontColor=#46495D;" parent="1" source="kuDPgty7mX3tu8Ov-66l-1" target="d4QqwgHZMLwHon4m-uyl-6" edge="1">
          <mxGeometry relative="1" as="geometry" />
        </mxCell>
        <mxCell id="kuDPgty7mX3tu8Ov-66l-1" value="Personality" style="swimlane;fontStyle=1;childLayout=stackLayout;horizontal=1;startSize=26;fillColor=#dae8fc;horizontalStack=0;resizeParent=1;resizeParentMax=0;resizeLast=0;collapsible=1;marginBottom=0;strokeColor=#6c8ebf;" parent="1" vertex="1">
          <mxGeometry x="250" y="490" width="140" height="150" as="geometry" />
        </mxCell>
        <mxCell id="kuDPgty7mX3tu8Ov-66l-2" value="- aggression: float&#xa;- bravery: float&#xa;- composure: float&#xa;- concentration: float&#xa;- determination: float&#xa;- leadership: float&#xa;- flair: float&#xa;- decisions: float" style="text;strokeColor=none;fillColor=none;align=left;verticalAlign=top;spacingLeft=4;spacingRight=4;overflow=hidden;rotatable=0;points=[[0,0.5],[1,0.5]];portConstraint=eastwest;fontColor=#46495D;" parent="kuDPgty7mX3tu8Ov-66l-1" vertex="1">
          <mxGeometry y="26" width="140" height="124" as="geometry" />
        </mxCell>
        <mxCell id="O9Isf1C4e_mbefrmD2pV-1" value="Manager" style="swimlane;fontStyle=1;align=center;verticalAlign=top;childLayout=stackLayout;horizontal=1;startSize=26;horizontalStack=0;resizeParent=1;resizeParentMax=0;resizeLast=0;collapsible=1;marginBottom=0;fillColor=#B2C9AB;strokeColor=#788AA3;fontColor=#46495D;" parent="1" vertex="1">
          <mxGeometry x="610" y="260" width="180" height="210" as="geometry" />
        </mxCell>
        <mxCell id="O9Isf1C4e_mbefrmD2pV-2" value="- budget: int&#xa;- expenses: int&#xa;+ staff_members: Staff[5]&#xa;+ match_calendar: Calendar&#xa;+ scout_finds: vector&lt;Player&gt;" style="text;strokeColor=none;fillColor=none;align=left;verticalAlign=top;spacingLeft=4;spacingRight=4;overflow=hidden;rotatable=0;points=[[0,0.5],[1,0.5]];portConstraint=eastwest;fontColor=#46495D;" parent="O9Isf1C4e_mbefrmD2pV-1" vertex="1">
          <mxGeometry y="26" width="180" height="84" as="geometry" />
        </mxCell>
        <mxCell id="O9Isf1C4e_mbefrmD2pV-4" value="+ bidForPlayer(int): void&#xa;- buyPlayer(int): Player&#xa;+ changeStaff(Staff, Staff): void&#xa;+ setMatch(Match): void&#xa;+ sendOutScout(void): Player" style="text;strokeColor=none;fillColor=none;align=left;verticalAlign=top;spacingLeft=4;spacingRight=4;overflow=hidden;rotatable=0;points=[[0,0.5],[1,0.5]];portConstraint=eastwest;fontColor=#46495D;" parent="O9Isf1C4e_mbefrmD2pV-1" vertex="1">
          <mxGeometry y="110" width="180" height="92" as="geometry" />
        </mxCell>
        <mxCell id="O9Isf1C4e_mbefrmD2pV-3" value="" style="line;strokeWidth=1;fillColor=none;align=left;verticalAlign=middle;spacingTop=-1;spacingLeft=3;spacingRight=3;rotatable=0;labelPosition=right;points=[];portConstraint=eastwest;strokeColor=#788AA3;fontColor=#46495D;" parent="O9Isf1C4e_mbefrmD2pV-1" vertex="1">
          <mxGeometry y="202" width="180" height="8" as="geometry" />
        </mxCell>
        <mxCell id="O9Isf1C4e_mbefrmD2pV-5" style="edgeStyle=orthogonalEdgeStyle;rounded=0;orthogonalLoop=1;jettySize=auto;html=1;entryX=-0.054;entryY=0.522;entryDx=0;entryDy=0;entryPerimeter=0;strokeColor=#788AA3;fontColor=#46495D;" parent="1" source="d4QqwgHZMLwHon4m-uyl-2" target="O9Isf1C4e_mbefrmD2pV-2" edge="1">
          <mxGeometry relative="1" as="geometry" />
        </mxCell>
        <mxCell id="O9Isf1C4e_mbefrmD2pV-6" value="Strategy" style="swimlane;fontStyle=1;align=center;verticalAlign=top;childLayout=stackLayout;horizontal=1;startSize=26;horizontalStack=0;resizeParent=1;resizeParentMax=0;resizeLast=0;collapsible=1;marginBottom=0;rounded=0;sketch=0;strokeColor=#788AA3;fillColor=#B2C9AB;fontColor=#46495D;" parent="1" vertex="1">
          <mxGeometry x="450" y="500" width="220" height="94" as="geometry" />
        </mxCell>
        <mxCell id="O9Isf1C4e_mbefrmD2pV-7" value="+ type: String&#xa;+ team_movement: Map&lt;Player, Site&gt;" style="text;strokeColor=none;fillColor=none;align=left;verticalAlign=top;spacingLeft=4;spacingRight=4;overflow=hidden;rotatable=0;points=[[0,0.5],[1,0.5]];portConstraint=eastwest;fontColor=#46495D;" parent="O9Isf1C4e_mbefrmD2pV-6" vertex="1">
          <mxGeometry y="26" width="220" height="34" as="geometry" />
        </mxCell>
        <mxCell id="O9Isf1C4e_mbefrmD2pV-8" value="" style="line;strokeWidth=1;fillColor=none;align=left;verticalAlign=middle;spacingTop=-1;spacingLeft=3;spacingRight=3;rotatable=0;labelPosition=right;points=[];portConstraint=eastwest;strokeColor=#788AA3;fontColor=#46495D;" parent="O9Isf1C4e_mbefrmD2pV-6" vertex="1">
          <mxGeometry y="60" width="220" height="8" as="geometry" />
        </mxCell>
        <mxCell id="O9Isf1C4e_mbefrmD2pV-9" value="+ setPlayerPosition(Player, Site): void" style="text;strokeColor=none;fillColor=none;align=left;verticalAlign=top;spacingLeft=4;spacingRight=4;overflow=hidden;rotatable=0;points=[[0,0.5],[1,0.5]];portConstraint=eastwest;fontColor=#46495D;" parent="O9Isf1C4e_mbefrmD2pV-6" vertex="1">
          <mxGeometry y="68" width="220" height="26" as="geometry" />
        </mxCell>
        <mxCell id="O9Isf1C4e_mbefrmD2pV-10" style="edgeStyle=orthogonalEdgeStyle;curved=0;rounded=1;sketch=0;orthogonalLoop=1;jettySize=auto;html=1;entryX=0.985;entryY=0.933;entryDx=0;entryDy=0;entryPerimeter=0;strokeColor=#788AA3;fillColor=#B2C9AB;fontColor=#46495D;exitX=0.5;exitY=0;exitDx=0;exitDy=0;" parent="1" source="O9Isf1C4e_mbefrmD2pV-6" target="d4QqwgHZMLwHon4m-uyl-2" edge="1">
          <mxGeometry relative="1" as="geometry">
            <Array as="points">
              <mxPoint x="560" y="490" />
              <mxPoint x="550" y="490" />
              <mxPoint x="550" y="394" />
            </Array>
          </mxGeometry>
        </mxCell>
        <mxCell id="O9Isf1C4e_mbefrmD2pV-15" style="edgeStyle=orthogonalEdgeStyle;curved=0;rounded=1;sketch=0;orthogonalLoop=1;jettySize=auto;html=1;entryX=1;entryY=0.5;entryDx=0;entryDy=0;strokeColor=#788AA3;fillColor=#B2C9AB;fontColor=#46495D;exitX=0.5;exitY=0;exitDx=0;exitDy=0;" parent="1" source="O9Isf1C4e_mbefrmD2pV-11" target="O9Isf1C4e_mbefrmD2pV-7" edge="1">
          <mxGeometry relative="1" as="geometry">
            <Array as="points">
              <mxPoint x="765" y="570" />
              <mxPoint x="765" y="550" />
              <mxPoint x="755" y="550" />
              <mxPoint x="755" y="543" />
            </Array>
          </mxGeometry>
        </mxCell>
        <mxCell id="O9Isf1C4e_mbefrmD2pV-11" value="Site" style="swimlane;fontStyle=1;childLayout=stackLayout;horizontal=1;startSize=26;fillColor=#dae8fc;horizontalStack=0;resizeParent=1;resizeParentMax=0;resizeLast=0;collapsible=1;marginBottom=0;rounded=0;sketch=0;strokeColor=#6c8ebf;" parent="1" vertex="1">
          <mxGeometry x="680" y="570" width="150" height="52" as="geometry" />
        </mxCell>
        <mxCell id="O9Isf1C4e_mbefrmD2pV-12" value="+ positions: vector&lt;int,int&gt;" style="text;strokeColor=none;fillColor=none;align=left;verticalAlign=top;spacingLeft=4;spacingRight=4;overflow=hidden;rotatable=0;points=[[0,0.5],[1,0.5]];portConstraint=eastwest;fontColor=#46495D;" parent="O9Isf1C4e_mbefrmD2pV-11" vertex="1">
          <mxGeometry y="26" width="150" height="26" as="geometry" />
        </mxCell>
        <mxCell id="79HCMQov36LSx9g6JEWd-2" value="Terrain" style="swimlane;fontStyle=1;childLayout=stackLayout;horizontal=1;startSize=26;fillColor=#dae8fc;horizontalStack=0;resizeParent=1;resizeParentMax=0;resizeLast=0;collapsible=1;marginBottom=0;strokeColor=#6c8ebf;" vertex="1" parent="1">
          <mxGeometry x="50" y="150" width="140" height="90" as="geometry" />
        </mxCell>
        <mxCell id="79HCMQov36LSx9g6JEWd-3" value="-map: float[][]&#xa;-advantage: float&#xa;+team:Team[2]" style="text;strokeColor=none;fillColor=none;align=left;verticalAlign=top;spacingLeft=4;spacingRight=4;overflow=hidden;rotatable=0;points=[[0,0.5],[1,0.5]];portConstraint=eastwest;fontColor=#46495D;" vertex="1" parent="79HCMQov36LSx9g6JEWd-2">
          <mxGeometry y="26" width="140" height="64" as="geometry" />
        </mxCell>
        <mxCell id="79HCMQov36LSx9g6JEWd-7" value="Game" style="swimlane;fontStyle=1;childLayout=stackLayout;horizontal=1;startSize=26;fillColor=#dae8fc;horizontalStack=0;resizeParent=1;resizeParentMax=0;resizeLast=0;collapsible=1;marginBottom=0;strokeColor=#6c8ebf;" vertex="1" parent="1">
          <mxGeometry x="285" y="90" width="140" height="90" as="geometry" />
        </mxCell>
        <mxCell id="79HCMQov36LSx9g6JEWd-8" value="+map: Terrain[1]&#xa;+team: Team[2]&#xa;-score_board:int[2]" style="text;strokeColor=none;fillColor=none;align=left;verticalAlign=top;spacingLeft=4;spacingRight=4;overflow=hidden;rotatable=0;points=[[0,0.5],[1,0.5]];portConstraint=eastwest;fontColor=#46495D;" vertex="1" parent="79HCMQov36LSx9g6JEWd-7">
          <mxGeometry y="26" width="140" height="64" as="geometry" />
        </mxCell>
        <mxCell id="79HCMQov36LSx9g6JEWd-9" style="edgeStyle=orthogonalEdgeStyle;rounded=0;orthogonalLoop=1;jettySize=auto;html=1;strokeColor=#788AA3;fontColor=#46495D;entryX=0.721;entryY=1.031;entryDx=0;entryDy=0;entryPerimeter=0;" edge="1" parent="1" source="d4QqwgHZMLwHon4m-uyl-1" target="79HCMQov36LSx9g6JEWd-8">
          <mxGeometry relative="1" as="geometry">
            <Array as="points">
              <mxPoint x="386" y="240" />
              <mxPoint x="386" y="240" />
            </Array>
            <mxPoint x="270" y="368" as="targetPoint" />
            <mxPoint x="210" y="368" as="sourcePoint" />
          </mxGeometry>
        </mxCell>
        <mxCell id="79HCMQov36LSx9g6JEWd-10" style="edgeStyle=orthogonalEdgeStyle;rounded=0;orthogonalLoop=1;jettySize=auto;html=1;strokeColor=#788AA3;fontColor=#46495D;" edge="1" parent="1" source="d4QqwgHZMLwHon4m-uyl-1" target="79HCMQov36LSx9g6JEWd-3">
          <mxGeometry relative="1" as="geometry">
            <Array as="points">
              <mxPoint x="260" y="208" />
            </Array>
            <mxPoint x="260.00000000000006" y="180.00400000000005" as="targetPoint" />
            <mxPoint x="260.06" y="288.02" as="sourcePoint" />
          </mxGeometry>
        </mxCell>
        <mxCell id="79HCMQov36LSx9g6JEWd-11" style="edgeStyle=orthogonalEdgeStyle;rounded=0;orthogonalLoop=1;jettySize=auto;html=1;strokeColor=#788AA3;fontColor=#46495D;entryX=0;entryY=0.5;entryDx=0;entryDy=0;" edge="1" parent="1" source="79HCMQov36LSx9g6JEWd-3" target="79HCMQov36LSx9g6JEWd-8">
          <mxGeometry relative="1" as="geometry">
            <Array as="points">
              <mxPoint x="230" y="180" />
              <mxPoint x="230" y="148" />
            </Array>
            <mxPoint x="210" y="280" as="targetPoint" />
            <mxPoint x="270" y="300" as="sourcePoint" />
          </mxGeometry>
        </mxCell>
      </root>
    </mxGraphModel>
  </diagram>
</mxfile>
